<svg width="92" height="19" viewBox="0 0 92 19" fill="none" xmlns="http://www.w3.org/2000/svg">
<path d="M89.0938 18.4531V0H91.7137V18.4531H89.0938Z" fill="white"/>
<path d="M82.8928 14.2597C81.8795 14.2597 80.9795 14.0464 80.1928 13.6197C79.4062 13.1797 78.7795 12.5797 78.3128 11.8197C77.8595 11.0597 77.6328 10.193 77.6328 9.21969C77.6328 8.25969 77.8528 7.40635 78.2928 6.65969C78.7461 5.89969 79.3595 5.29969 80.1328 4.85969C80.9061 4.40635 81.7661 4.17969 82.7128 4.17969C83.6461 4.17969 84.4661 4.39302 85.1728 4.81969C85.8928 5.23302 86.4528 5.80635 86.8528 6.53969C87.2661 7.25969 87.4728 8.07969 87.4728 8.99969C87.4728 9.17302 87.4595 9.35302 87.4328 9.53969C87.4195 9.71302 87.3862 9.91302 87.3328 10.1397L79.2128 10.1597V8.19969L86.1128 8.17969L85.0528 8.99969C85.0262 8.42635 84.9195 7.94635 84.7328 7.55969C84.5595 7.17302 84.2995 6.87969 83.9528 6.67969C83.6195 6.46635 83.2061 6.35969 82.7128 6.35969C82.1928 6.35969 81.7395 6.47969 81.3528 6.71969C80.9661 6.94635 80.6662 7.27302 80.4528 7.69969C80.2528 8.11302 80.1528 8.60635 80.1528 9.17969C80.1528 9.76635 80.2595 10.2797 80.4728 10.7197C80.6995 11.1464 81.0195 11.4797 81.4328 11.7197C81.8461 11.9464 82.3262 12.0597 82.8728 12.0597C83.3662 12.0597 83.8128 11.9797 84.2128 11.8197C84.6128 11.6464 84.9595 11.393 85.2528 11.0597L86.7928 12.5997C86.3261 13.1464 85.7528 13.5597 85.0728 13.8397C84.4061 14.1197 83.6795 14.2597 82.8928 14.2597Z" fill="white"/>
<path d="M72.0725 14.2597C71.0592 14.2597 70.1592 14.0464 69.3725 13.6197C68.5858 13.1797 67.9592 12.5797 67.4925 11.8197C67.0392 11.0597 66.8125 10.193 66.8125 9.21969C66.8125 8.25969 67.0325 7.40635 67.4725 6.65969C67.9258 5.89969 68.5392 5.29969 69.3125 4.85969C70.0858 4.40635 70.9458 4.17969 71.8925 4.17969C72.8258 4.17969 73.6458 4.39302 74.3525 4.81969C75.0725 5.23302 75.6325 5.80635 76.0325 6.53969C76.4458 7.25969 76.6525 8.07969 76.6525 8.99969C76.6525 9.17302 76.6392 9.35302 76.6125 9.53969C76.5992 9.71302 76.5658 9.91302 76.5125 10.1397L68.3925 10.1597V8.19969L75.2925 8.17969L74.2325 8.99969C74.2058 8.42635 74.0992 7.94635 73.9125 7.55969C73.7392 7.17302 73.4792 6.87969 73.1325 6.67969C72.7992 6.46635 72.3858 6.35969 71.8925 6.35969C71.3725 6.35969 70.9192 6.47969 70.5325 6.71969C70.1458 6.94635 69.8458 7.27302 69.6325 7.69969C69.4325 8.11302 69.3325 8.60635 69.3325 9.17969C69.3325 9.76635 69.4392 10.2797 69.6525 10.7197C69.8792 11.1464 70.1992 11.4797 70.6125 11.7197C71.0258 11.9464 71.5058 12.0597 72.0525 12.0597C72.5458 12.0597 72.9925 11.9797 73.3925 11.8197C73.7925 11.6464 74.1392 11.393 74.4325 11.0597L75.9725 12.5997C75.5058 13.1464 74.9325 13.5597 74.2525 13.8397C73.5858 14.1197 72.8592 14.2597 72.0725 14.2597Z" fill="white"/>
<path d="M62.7243 14.0619V8.52193C62.7243 7.94859 62.5443 7.48191 62.1843 7.12191C61.8243 6.76191 61.3576 6.58191 60.7843 6.58191C60.411 6.58191 60.0776 6.66191 59.7843 6.82191C59.491 6.98191 59.2576 7.20858 59.0843 7.50191C58.9243 7.79524 58.8443 8.13526 58.8443 8.52193L57.8243 8.00192C57.8243 7.24192 57.9843 6.58191 58.3043 6.02191C58.6243 5.44858 59.0643 5.00191 59.6243 4.68191C60.1976 4.36191 60.8509 4.20191 61.5843 4.20191C62.3176 4.20191 62.9643 4.36191 63.5243 4.68191C64.0976 5.00191 64.5443 5.44191 64.8643 6.00191C65.1843 6.56191 65.3443 7.20858 65.3443 7.94191V14.0619H62.7243ZM56.2243 14.0619L56.1992 0.0078125H58.8192L58.8443 14.0619H56.2243Z" fill="white"/>
<path d="M43.4325 14.0662L39.8125 4.40625H42.4525L44.8125 11.4262L44.0125 11.4462L46.4325 4.40625H48.3325L50.7525 11.4462L49.9525 11.4262L52.3125 4.40625H54.9525L51.3525 14.0662H49.4525L47.0125 7.38625H47.7525L45.3125 14.0662H43.4325Z" fill="white"/>
<path d="M34.7678 14.2597C33.7545 14.2597 32.8545 14.0464 32.0678 13.6197C31.2811 13.1797 30.6545 12.5797 30.1878 11.8197C29.7345 11.0597 29.5078 10.193 29.5078 9.21969C29.5078 8.25969 29.7278 7.40635 30.1678 6.65969C30.6211 5.89969 31.2345 5.29969 32.0078 4.85969C32.7811 4.40635 33.6411 4.17969 34.5878 4.17969C35.5211 4.17969 36.3411 4.39302 37.0478 4.81969C37.7678 5.23302 38.3278 5.80635 38.7278 6.53969C39.1411 7.25969 39.3478 8.07969 39.3478 8.99969C39.3478 9.17302 39.3345 9.35302 39.3078 9.53969C39.2945 9.71302 39.2611 9.91302 39.2078 10.1397L31.0878 10.1597V8.19969L37.9878 8.17969L36.9278 8.99969C36.9011 8.42635 36.7945 7.94635 36.6078 7.55969C36.4345 7.17302 36.1745 6.87969 35.8278 6.67969C35.4945 6.46635 35.0811 6.35969 34.5878 6.35969C34.0678 6.35969 33.6145 6.47969 33.2278 6.71969C32.8411 6.94635 32.5411 7.27302 32.3278 7.69969C32.1278 8.11302 32.0278 8.60635 32.0278 9.17969C32.0278 9.76635 32.1345 10.2797 32.3478 10.7197C32.5745 11.1464 32.8945 11.4797 33.3078 11.7197C33.7211 11.9464 34.2011 12.0597 34.7478 12.0597C35.2411 12.0597 35.6878 11.9797 36.0878 11.8197C36.4878 11.6464 36.8345 11.393 37.1278 11.0597L38.6678 12.5997C38.2011 13.1464 37.6278 13.5597 36.9478 13.8397C36.2811 14.1197 35.5545 14.2597 34.7678 14.2597Z" fill="white"/>
<path d="M23.9475 14.2597C22.9342 14.2597 22.0342 14.0464 21.2475 13.6197C20.4608 13.1797 19.8342 12.5797 19.3675 11.8197C18.9142 11.0597 18.6875 10.193 18.6875 9.21969C18.6875 8.25969 18.9075 7.40635 19.3475 6.65969C19.8008 5.89969 20.4142 5.29969 21.1875 4.85969C21.9608 4.40635 22.8208 4.17969 23.7675 4.17969C24.7008 4.17969 25.5208 4.39302 26.2275 4.81969C26.9475 5.23302 27.5075 5.80635 27.9075 6.53969C28.3208 7.25969 28.5275 8.07969 28.5275 8.99969C28.5275 9.17302 28.5142 9.35302 28.4875 9.53969C28.4742 9.71302 28.4408 9.91302 28.3875 10.1397L20.2675 10.1597V8.19969L27.1675 8.17969L26.1075 8.99969C26.0808 8.42635 25.9742 7.94635 25.7875 7.55969C25.6142 7.17302 25.3542 6.87969 25.0075 6.67969C24.6742 6.46635 24.2608 6.35969 23.7675 6.35969C23.2475 6.35969 22.7942 6.47969 22.4075 6.71969C22.0208 6.94635 21.7208 7.27302 21.5075 7.69969C21.3075 8.11302 21.2075 8.60635 21.2075 9.17969C21.2075 9.76635 21.3142 10.2797 21.5275 10.7197C21.7542 11.1464 22.0742 11.4797 22.4875 11.7197C22.9008 11.9464 23.3808 12.0597 23.9275 12.0597C24.4208 12.0597 24.8675 11.9797 25.2675 11.8197C25.6675 11.6464 26.0142 11.393 26.3075 11.0597L27.8475 12.5997C27.3808 13.1464 26.8075 13.5597 26.1275 13.8397C25.4608 14.1197 24.7342 14.2597 23.9475 14.2597Z" fill="white"/>
<path d="M11.2812 14.0631V4.40313H13.9013V14.0631H11.2812ZM13.9013 8.72313L12.8813 8.04313C13.0013 6.85646 13.3479 5.92312 13.9213 5.24312C14.4946 4.54979 15.3213 4.20312 16.4013 4.20312C16.8679 4.20312 17.2879 4.28312 17.6613 4.44312C18.0346 4.58979 18.3746 4.83646 18.6813 5.18312L17.0413 7.06313C16.8946 6.90313 16.7146 6.78313 16.5013 6.70312C16.3013 6.62313 16.0679 6.58313 15.8013 6.58313C15.2413 6.58313 14.7812 6.76312 14.4212 7.12313C14.0746 7.46979 13.9013 8.00313 13.9013 8.72313Z" fill="white"/>
<path d="M0 14.06V0H2.72V14.06H0ZM2 8.3V5.88H9.08V8.3H2ZM2 2.4V0H39.3516V2.4H2Z" fill="white"/>
<rect x="39.8125" y="16.0547" width="51.9023" height="2.39844" fill="white"/>
</svg>
